Coordinates
version=1
nRows=16
nColumns=40
inDegrees=yes

Units are S.I. units (second, meters, Newtons, ...)
Angles are in degrees.

endheader
time	pelvis_tilt	pelvis_list	pelvis_rotation	pelvis_tx	pelvis_ty	pelvis_tz	hip_flexion_r	hip_adduction_r	hip_rotation_r	knee_angle_r	knee_angle_r_beta	ankle_angle_r	subtalar_angle_r	mtp_angle_r	hip_flexion_l	hip_adduction_l	hip_rotation_l	knee_angle_l	knee_angle_l_beta	ankle_angle_l	subtalar_angle_l	mtp_angle_l	lumbar_extension	lumbar_bending	lumbar_rotation	arm_flex_r	arm_add_r	arm_rot_r	elbow_flex_r	pro_sup_r	wrist_flex_r	wrist_dev_r	arm_flex_l	arm_add_l	arm_rot_l	elbow_flex_l	pro_sup_l	wrist_flex_l	wrist_dev_l
     23.55842857	     -3.10144270	     -4.80943091	    -11.36878246	      0.91553817	      0.92647444	      0.43471746	     25.59300576	     -1.12244495	     -7.88246518	     22.74679684	     22.74679684	      6.98119972	     -2.26491385	      2.28744892	      2.77025455	     -3.11859447	     -9.26110418	     19.28394837	     19.28394837	     20.18711896	    -14.58981122	      2.94395555	    -11.96189690	      8.34063037	      1.08760548	    -14.42675738	    -12.75082067	    -21.57164024	     25.38959061	     47.60753891	      0.00000000	      0.00000000	     33.79861240	    -21.33572812	     -1.08706596	     75.48463108	     47.26712072	      0.00000000	      0.00000000
     23.57685714	     -3.26416421	     -4.49512831	    -11.61324589	      0.91639090	      0.92509039	      0.43811084	     25.59814908	     -1.17869461	     -8.03299954	     21.43937099	     21.43937099	      6.69524011	     -1.35604988	      2.59035539	      2.15491655	     -2.90443727	     -9.63578138	     18.69400745	     18.69400745	     20.46362176	    -14.22802925	      2.76307986	    -11.65589778	      8.18248393	      1.07814175	    -14.83915972	    -12.45515104	    -21.59484982	     25.29306087	     47.60384985	      0.00000000	      0.00000000	     34.86926165	    -21.62361614	     -1.37734117	     76.24162101	     47.31030112	      0.00000000	      0.00000000
     23.59528571	     -3.06194562	     -4.38073914	    -11.87207672	      0.91811383	      0.92409272	      0.44163250	     25.02735028	     -1.28113428	     -8.83498339	     20.48226742	     20.48226742	      6.48288094	      0.36210631	      2.08854127	      0.80522916	     -2.85688716	    -10.48713808	     17.64411405	     17.64411405	     20.44825478	    -13.19967193	      1.33101546	    -11.84297812	      8.25251119	      1.04640986	    -15.27756431	    -12.16380236	    -22.15872346	     26.30297630	     47.54575738	      0.00000000	      0.00000000	     34.89028896	    -21.70766837	     -2.46875905	     78.85083117	     47.46717167	      0.00000000	      0.00000000
     23.61371429	     -3.00238833	     -4.14385309	    -12.12122758	      0.91993287	      0.92271188	      0.44531416	     24.83664354	     -1.42798019	     -9.12292529	     20.28741577	     20.28741577	      6.25520947	      0.81869972	      1.70259100	     -0.23898696	     -2.66548423	    -11.00638589	     16.85018775	     16.85018775	     20.71908351	    -12.57599975	      1.03098850	    -11.75021574	      8.20389319	      1.24142292	    -15.37884207	    -11.90192051	    -22.24031997	     26.47569418	     47.52829988	      0.00000000	      0.00000000	     35.46682466	    -21.63666369	     -2.91065382	     79.94043509	     47.52856022	      0.00000000	      0.00000000
     23.63214286	     -2.98679355	     -3.91093372	    -12.32851574	      0.92201613	      0.92112413	      0.44911830	     24.76738554	     -1.58073754	     -9.27138882	     20.60880049	     20.60880049	      6.15516172	      0.79183220	      0.97480592	     -1.12490614	     -2.50657901	    -11.42099860	     16.30243318	     16.30243318	     21.06662745	    -12.04482794	      0.70553439	    -11.57128442	      8.19623245	      1.29793667	    -15.22019524	    -11.67400582	    -22.35301632	     26.87933056	     47.50799638	      0.00000000	      0.00000000	     35.81277650	    -21.61158782	     -3.48394778	     80.96946199	     47.59358781	      0.00000000	      0.00000000
     23.65057143	     -3.13000709	     -3.90986366	    -12.49994952	      0.92422409	      0.91959193	      0.45320989	     24.73334276	     -1.45746598	     -9.43547173	     21.06264920	     21.06264920	      6.04865692	      0.61072558	      0.68464906	     -1.73356433	     -2.65806240	    -11.59048151	     16.06230886	     16.06230886	     21.37017631	    -11.97306874	      0.60888115	    -11.22000939	      8.49528823	      1.39978636	    -14.79365908	    -11.52426008	    -22.36106134	     27.14813313	     47.49689060	      0.00000000	      0.00000000	     36.08458860	    -21.58688414	     -3.69130744	     81.35996175	     47.61743382	      0.00000000	      0.00000000
     23.66900000	     -2.99403997	     -3.77862572	    -12.72734670	      0.92694087	      0.91845264	      0.45762923	     24.43371355	     -1.40725899	     -9.09756511	     21.64028563	     21.64028563	      5.03848928	     -0.58344764	     -2.87623355	     -2.75262567	     -2.68679847	    -12.41430383	     15.66640159	     15.66640159	     21.64254984	    -10.89561799	      0.05491502	    -11.26132992	      8.54774423	      0.76202680	    -14.32281463	    -11.38019157	    -23.04558797	     29.09572863	     47.41728964	      0.00000000	      0.00000000	     34.80506656	    -21.59000283	     -6.55129184	     84.45606370	     47.87253394	      0.00000000	      0.00000000
     23.68742857	     -2.99191598	     -3.78376248	    -12.85939640	      0.92958454	      0.91753107	      0.46214330	     24.30962795	     -1.27727007	     -9.05011812	     22.57371641	     22.57371641	      5.15549018	     -1.07236239	     -3.31467884	     -3.46115090	     -2.84783718	    -12.53074202	     15.57586402	     15.57586402	     21.81113278	    -10.91297801	      0.09175249	    -11.06811883	      8.75226632	      0.91003455	    -13.62891056	    -11.34834964	    -23.02534058	     29.39112387	     47.40307062	      0.00000000	      0.00000000	     34.83144863	    -21.46457291	     -6.65983448	     84.61777826	     47.88463361	      0.00000000	      0.00000000
     23.70585714	     -3.01449476	     -3.77361106	    -13.02002645	      0.93231581	      0.91687815	      0.46704182	     24.14531620	     -0.94562770	     -8.30517764	     23.37452125	     23.37452125	      4.96813175	     -2.61117557	     -4.48759841	     -4.07510522	     -3.06512234	    -12.83622054	     15.65018425	     15.65018425	     22.04425470	    -10.63661694	      0.32926129	    -10.88260221	      8.90655005	      0.62308489	    -12.76798574	    -11.27956172	    -23.22952233	     30.43932380	     47.34322658	      0.00000000	      0.00000000	     34.11225547	    -21.38345853	     -8.04747008	     85.77912368	     48.00184457	      0.00000000	      0.00000000
     23.72428571	     -3.03922325	     -3.86891643	    -13.10646104	      0.93509809	      0.91674294	      0.47201516	     23.79410242	     -0.63811270	     -8.21916357	     23.98178004	     23.98178004	      5.26279327	     -2.79472297	     -4.73153456	     -4.60618196	     -3.41205079	    -12.94830564	     15.86932455	     15.86932455	     21.96160664	    -10.77802612	      0.41143380	    -10.65494764	      9.12378178	      0.78440653	    -11.86139007	    -11.26674363	    -23.19366824	     30.82404432	     47.32897934	      0.00000000	      0.00000000	     33.94403111	    -21.07747452	     -7.98869638	     85.80835106	     47.99816144	      0.00000000	      0.00000000
     23.74271429	     -3.05755398	     -3.94391915	    -13.12234816	      0.93768107	      0.91676379	      0.47724924	     23.55635543	     -0.18418990	     -7.53432234	     24.74736287	     24.74736287	      5.49696820	     -4.21738761	     -4.80355104	     -4.80893815	     -3.88430665	    -13.14029930	     16.71154149	     16.71154149	     22.01585034	    -10.75821302	      0.49666640	    -10.51564010	      9.24561058	      0.41866310	    -10.83022850	    -11.27361546	    -23.35381474	     31.99802952	     47.27768515	      0.00000000	      0.00000000	     33.26507356	    -21.10352319	     -8.96347966	     86.26474900	     48.07017667	      0.00000000	      0.00000000
     23.76114286	     -3.06462270	     -4.15027678	    -13.08876473	      0.94036878	      0.91734306	      0.48258092	     22.98836416	      0.35477271	     -7.24422767	     25.01201242	     25.01201242	      5.85253200	     -4.80730867	     -4.63166963	     -4.99304127	     -4.53654409	    -13.33308486	     17.65886116	     17.65886116	     21.94215624	    -10.73587795	      0.59141984	    -10.37678993	      9.47964583	      0.10003038	     -9.86056888	    -11.33497901	    -23.43976879	     33.22384034	     47.21017645	      0.00000000	      0.00000000	     32.39476122	    -20.87660411	     -9.82103938	     86.75873794	     48.13547723	      0.00000000	      0.00000000
     23.77957143	     -3.06299104	     -4.31890435	    -13.01262562	      0.94289466	      0.91822963	      0.48795038	     22.34947932	      0.82744893	     -7.11543652	     25.11131001	     25.11131001	      6.23362565	     -5.09837681	     -4.45822128	     -5.03248391	     -5.17476519	    -13.36465594	     18.80017241	     18.80017241	     21.62716150	    -11.00552611	      0.54176002	    -10.24581434	      9.58792478	      0.00978275	     -8.84128734	    -11.42417891	    -23.40305286	     34.05544906	     47.16510489	      0.00000000	      0.00000000	     31.84802323	    -20.59647853	    -10.02408416	     86.69721254	     48.14711043	      0.00000000	      0.00000000
     23.79800000	     -3.04396074	     -4.51000764	    -12.89325502	      0.94533914	      0.91936492	      0.49339193	     21.59629206	      1.32565869	     -7.05219798	     25.01855962	     25.01855962	      6.62528243	     -5.30194119	     -4.25806693	     -4.94514013	     -5.89200712	    -13.37066408	     20.18504834	     20.18504834	     21.17715273	    -11.33025724	      0.37107412	    -10.13086627	      9.67280163	     -0.08033805	     -7.85906903	    -11.55806427	    -23.35915851	     34.86492290	     47.12555339	      0.00000000	      0.00000000	     31.27461455	    -20.26515191	    -10.11690106	     86.47894853	     48.14748025	      0.00000000	      0.00000000
     23.81642857	     -3.03782831	     -4.69387929	    -12.75957111	      0.94763075	      0.92067944	      0.49887426	     20.78786478	      1.81782670	     -7.07804805	     24.75589751	     24.75589751	      6.97832589	     -5.40516538	     -4.03636061	     -4.71312180	     -6.65387176	    -13.33902204	     21.76278954	     21.76278954	     20.60124504	    -11.66866594	      0.09250326	    -10.01194403	      9.70043690	     -0.11886395	     -6.86317426	    -11.71061094	    -23.29198679	     35.69258318	     47.08668453	      0.00000000	      0.00000000	     30.59325738	    -19.85753310	    -10.13958011	     86.13777003	     48.13979941	      0.00000000	      0.00000000
     23.83485714	     -3.11761692	     -4.86503714	    -12.57685309	      0.94977338	      0.92197647	      0.50435010	     19.99824530	      2.32078436	     -7.14753231	     24.32065703	     24.32065703	      7.30635971	     -5.49275021	     -3.65055027	     -4.22396295	     -7.50538138	    -13.33676356	     23.58562171	     23.58562171	     19.86400878	    -11.90763542	     -0.52285894	     -9.74868198	      9.70873956	     -0.25420112	     -5.97694518	    -11.90499232	    -23.13993416	     36.78898335	     47.02778076	      0.00000000	      0.00000000	     29.72930463	    -19.40016416	    -10.26754159	     85.62325329	     48.13501067	      0.00000000	      0.00000000
